<svg version="1.1" xmlns="http://www.w3.org/2000/svg" viewBox="0 0 420 420" width="420" height="420" filter="invert(93%) hue-rotate(180deg)"><!-- svg-source:excalidraw --><metadata></metadata><defs><style class="style-fonts">
      </style></defs><g stroke-linecap="round" transform="translate(10 10) rotate(0 200 200)"><path d="M-0.2 201.23 C-0.2 201.23, -0.2 201.23, -0.2 201.23 M-0.2 201.23 C-0.2 201.23, -0.2 201.23, -0.2 201.23 M5.84 206.48 C31 177.53, 56.16 148.59, 81.29 119.69 M5.84 206.48 C34.8 173.16, 63.76 139.85, 81.29 119.69 M11.22 212.48 C58.9 157.63, 106.58 102.79, 162.11 38.9 M11.22 212.48 C57.82 158.88, 104.42 105.27, 162.11 38.9 M17.26 217.73 C64.86 162.96, 112.47 108.2, 204.23 2.64 M17.26 217.73 C84.1 140.83, 150.95 63.94, 204.23 2.64 M22.64 223.73 C80.59 157.07, 138.54 90.4, 209.62 8.64 M22.64 223.73 C82.86 154.45, 143.09 85.17, 209.62 8.64 M28.68 228.98 C95.13 152.54, 161.58 76.09, 215 14.64 M28.68 228.98 C89.98 158.46, 151.29 87.94, 215 14.64 M34.06 234.98 C92.34 167.93, 150.63 100.89, 221.04 19.89 M34.06 234.98 C82.84 178.87, 131.62 122.76, 221.04 19.89 M40.1 240.23 C107.64 162.53, 175.19 84.83, 226.42 25.89 M40.1 240.23 C91.94 180.59, 143.79 120.94, 226.42 25.89 M45.48 246.24 C100.63 182.79, 155.78 119.35, 232.45 31.14 M45.48 246.24 C90.68 194.24, 135.87 142.25, 232.45 31.14 M51.52 251.48 C111.44 182.55, 171.37 113.61, 237.84 37.15 M51.52 251.48 C95.03 201.43, 138.54 151.37, 237.84 37.15 M56.9 257.49 C96 212.5, 135.1 167.52, 243.22 43.15 M56.9 257.49 C127.64 176.11, 198.38 94.73, 243.22 43.15 M62.94 262.74 C120.69 196.3, 178.44 129.86, 249.26 48.4 M62.94 262.74 C132.17 183.09, 201.4 103.45, 249.26 48.4 M68.32 268.74 C121.09 208.03, 173.86 147.32, 254.64 54.4 M68.32 268.74 C122 206.98, 175.69 145.22, 254.64 54.4 M74.35 273.99 C135.87 203.23, 197.38 132.46, 260.68 59.65 M74.35 273.99 C133.52 205.93, 192.68 137.87, 260.68 59.65 M79.74 279.99 C139.06 211.74, 198.39 143.49, 266.06 65.65 M79.74 279.99 C150.36 198.75, 220.98 117.5, 266.06 65.65 M85.77 285.24 C124.99 240.12, 164.21 195, 271.44 71.66 M85.77 285.24 C131.27 232.91, 176.76 180.57, 271.44 71.66 M91.16 291.24 C164.81 206.51, 238.46 121.78, 277.48 76.9 M91.16 291.24 C158.73 213.5, 226.31 135.76, 277.48 76.9 M96.54 297.25 C154.1 231.02, 211.67 164.8, 282.86 82.91 M96.54 297.25 C166.61 216.63, 236.69 136.02, 282.86 82.91 M102.57 302.49 C171.58 223.11, 240.59 143.72, 288.9 88.16 M102.57 302.49 C167.39 227.93, 232.21 153.37, 288.9 88.16 M107.96 308.5 C146.26 264.43, 184.56 220.37, 294.28 94.16 M107.96 308.5 C160.36 248.22, 212.76 187.94, 294.28 94.16 M113.99 313.75 C183.93 233.3, 253.86 152.85, 299.66 100.16 M113.99 313.75 C177.45 240.75, 240.91 167.75, 299.66 100.16 M119.38 319.75 C158.48 274.76, 197.58 229.78, 305.7 105.41 M119.38 319.75 C190.06 238.44, 260.74 157.12, 305.7 105.41 M125.41 325 C185.52 255.85, 245.63 186.7, 311.08 111.41 M125.41 325 C190.4 250.24, 255.39 175.47, 311.08 111.41 M130.79 331 C178.72 275.86, 226.65 220.73, 317.12 116.66 M130.79 331 C175.11 280.02, 219.42 229.04, 317.12 116.66 M136.83 336.25 C210.69 251.28, 284.55 166.32, 322.5 122.67 M136.83 336.25 C188.21 277.14, 239.59 218.04, 322.5 122.67 M142.21 342.25 C181.13 297.48, 220.05 252.71, 327.88 128.67 M142.21 342.25 C192.8 284.06, 243.38 225.87, 327.88 128.67 M148.25 347.5 C215.38 270.28, 282.51 193.06, 333.92 133.92 M148.25 347.5 C189.91 299.58, 231.57 251.65, 333.92 133.92 M153.63 353.5 C219.63 277.58, 285.64 201.65, 339.3 139.92 M153.63 353.5 C199.57 300.65, 245.52 247.8, 339.3 139.92 M159.67 358.75 C206.88 304.45, 254.09 250.14, 345.34 145.17 M159.67 358.75 C232.81 274.61, 305.95 190.47, 345.34 145.17 M165.05 364.76 C222.6 298.56, 280.14 232.36, 350.72 151.17 M165.05 364.76 C234.77 284.56, 304.48 204.37, 350.72 151.17 M171.09 370 C225.07 307.9, 279.06 245.8, 356.1 157.18 M171.09 370 C242.28 288.11, 313.47 206.21, 356.1 157.18 M176.47 376.01 C234.88 308.82, 293.28 241.63, 362.14 162.42 M176.47 376.01 C216.88 329.52, 257.3 283.03, 362.14 162.42 M182.51 381.26 C250.32 303.25, 318.13 225.24, 367.52 168.43 M182.51 381.26 C237.04 318.52, 291.58 255.79, 367.52 168.43 M187.89 387.26 C250.57 315.15, 313.25 243.05, 373.56 173.68 M187.89 387.26 C259.1 305.34, 330.31 223.42, 373.56 173.68 M193.93 392.51 C258.21 318.56, 322.5 244.61, 378.94 179.68 M193.93 392.51 C234.65 345.66, 275.38 298.81, 378.94 179.68 M199.31 398.51 C268.46 318.96, 337.61 239.42, 384.32 185.68 M199.31 398.51 C242.07 349.32, 284.83 300.13, 384.32 185.68 M251.93 350.17 C304.55 289.64, 357.17 229.11, 390.36 190.93 M251.93 350.17 C301.15 293.55, 350.37 236.93, 390.36 190.93 M333.41 268.63 C354.88 243.94, 376.34 219.25, 395.74 196.93 M333.41 268.63 C356.27 242.33, 379.13 216.03, 395.74 196.93" stroke="#a5d8ff" stroke-width="1" fill="none"></path><path d="M201 0 C279.15 78.93, 357.3 157.87, 400 201 M201 0 C267.21 66.87, 333.42 133.75, 400 201 M400 201 C325.3 275.7, 250.6 350.4, 201 400 M400 201 C329.77 271.23, 259.54 341.46, 201 400 M201 400 C132.74 332.42, 64.48 264.84, 0 201 M201 400 C123.7 323.46, 46.39 246.93, 0 201 M0 201 C59.7 141.3, 119.39 81.61, 201 0 M0 201 C75.71 125.29, 151.41 49.59, 201 0" stroke="#0ea5e9" stroke-width="2" fill="none"></path></g><g stroke-linecap="round" transform="translate(110 110) rotate(270 100 100)"><path d="M0 0 C0 0, 0 0, 0 0 M0 0 C0 0, 0 0, 0 0 M0.13 12.04 C4.08 7.5, 8.03 2.96, 10.63 -0.03 M0.13 12.04 C3.47 8.2, 6.82 4.35, 10.63 -0.03 M0.27 24.08 C5.77 17.76, 11.26 11.43, 21.26 -0.07 M0.27 24.08 C5.63 17.91, 10.99 11.74, 21.26 -0.07 M-0.26 36.88 C11.89 22.91, 24.03 8.94, 31.89 -0.1 M-0.26 36.88 C7.82 27.59, 15.9 18.29, 31.89 -0.1 M-0.12 48.92 C13.92 32.77, 27.96 16.62, 42.52 -0.14 M-0.12 48.92 C13.85 32.85, 27.82 16.78, 42.52 -0.14 M0.01 60.96 C15.23 43.45, 30.45 25.94, 53.15 -0.17 M0.01 60.96 C20.76 37.09, 41.52 13.21, 53.15 -0.17 M0.14 73 C19.97 50.19, 39.8 27.38, 63.78 -0.21 M0.14 73 C16.2 54.53, 32.26 36.05, 63.78 -0.21 M0.28 85.04 C28.99 52, 57.71 18.97, 74.41 -0.24 M0.28 85.04 C26.48 54.9, 52.67 24.76, 74.41 -0.24 M-0.25 97.84 C29.18 63.98, 58.62 30.12, 85.04 -0.28 M-0.25 97.84 C32.49 60.18, 65.23 22.51, 85.04 -0.28 M-0.11 109.88 C27.91 77.64, 55.93 45.4, 95.67 -0.31 M-0.11 109.88 C19.59 87.21, 39.29 64.54, 95.67 -0.31 M0.02 121.92 C36.42 80.04, 72.82 38.17, 106.3 -0.34 M0.02 121.92 C29.2 88.35, 58.39 54.77, 106.3 -0.34 M0.15 133.96 C28.08 101.83, 56 69.71, 116.27 0.38 M0.15 133.96 C42.15 85.65, 84.15 37.33, 116.27 0.38 M0.29 146 C37.4 103.3, 74.51 60.61, 126.91 0.34 M0.29 146 C47.83 91.3, 95.38 36.61, 126.91 0.34 M-0.24 158.8 C54.35 96, 108.93 33.21, 137.54 0.31 M-0.24 158.8 C38.88 113.79, 78 68.79, 137.54 0.31 M-0.1 170.84 C53.68 108.96, 107.47 47.09, 148.17 0.27 M-0.1 170.84 C49.71 113.53, 99.53 56.22, 148.17 0.27 M0.03 182.88 C55.8 118.71, 111.58 54.55, 158.8 0.24 M0.03 182.88 C60.94 112.8, 121.86 42.73, 158.8 0.24 M0.16 194.92 C66.82 118.23, 133.49 41.55, 169.43 0.2 M0.16 194.92 C51.6 135.75, 103.04 76.57, 169.43 0.2 M6.2 200.17 C45.15 155.36, 84.1 110.56, 180.06 0.17 M6.2 200.17 C61.9 136.09, 117.59 72.02, 180.06 0.17 M16.17 200.89 C52.01 159.67, 87.84 118.45, 190.69 0.13 M16.17 200.89 C55.52 155.63, 94.86 110.37, 190.69 0.13 M26.8 200.85 C89 129.3, 151.2 57.76, 200 1.61 M26.8 200.85 C79.12 140.67, 131.43 80.5, 200 1.61 M37.43 200.82 C85.07 146.02, 132.7 91.23, 200.14 13.65 M37.43 200.82 C93.63 136.17, 149.82 71.53, 200.14 13.65 M48.06 200.78 C82.74 160.89, 117.42 121, 200.27 25.69 M48.06 200.78 C106.68 133.36, 165.29 65.93, 200.27 25.69 M58.69 200.75 C104.99 147.49, 151.29 94.23, 199.75 38.49 M58.69 200.75 C101.97 150.96, 145.25 101.18, 199.75 38.49 M69.32 200.71 C112.16 151.43, 155 102.15, 199.88 50.53 M69.32 200.71 C118.2 144.49, 167.08 88.26, 199.88 50.53 M79.95 200.68 C111.21 164.72, 142.47 128.76, 200.01 62.57 M79.95 200.68 C110.13 165.96, 140.31 131.25, 200.01 62.57 M90.58 200.65 C121.74 164.8, 152.9 128.96, 200.15 74.61 M90.58 200.65 C126 159.91, 161.41 119.17, 200.15 74.61 M101.21 200.61 C122.46 176.17, 143.7 151.74, 200.28 86.65 M101.21 200.61 C132.82 164.26, 164.42 127.91, 200.28 86.65 M111.84 200.58 C142.41 165.42, 172.97 130.26, 199.76 99.45 M111.84 200.58 C132.36 176.98, 152.87 153.39, 199.76 99.45 M122.47 200.54 C152.84 165.61, 183.2 130.69, 199.89 111.49 M122.47 200.54 C149.43 169.53, 176.38 138.53, 199.89 111.49 M133.1 200.51 C152.87 177.76, 172.64 155.02, 200.02 123.53 M133.1 200.51 C156.85 173.19, 180.6 145.87, 200.02 123.53 M143.73 200.47 C164.72 176.33, 185.71 152.18, 200.16 135.57 M143.73 200.47 C164.94 176.08, 186.14 151.69, 200.16 135.57 M154.37 200.44 C169.61 182.9, 184.85 165.37, 200.29 147.61 M154.37 200.44 C167.52 185.3, 180.68 170.17, 200.29 147.61 M165 200.4 C172.25 192.05, 179.51 183.7, 199.77 160.4 M165 200.4 C176.72 186.92, 188.44 173.43, 199.77 160.4 M175.63 200.37 C185.04 189.54, 194.45 178.71, 199.9 172.44 M175.63 200.37 C182.3 192.69, 188.98 185, 199.9 172.44 M186.26 200.33 C190.86 195.04, 195.46 189.75, 200.03 184.49 M186.26 200.33 C191.3 194.53, 196.34 188.73, 200.03 184.49 M196.89 200.3 C197.61 199.47, 198.33 198.64, 200.17 196.53 M196.89 200.3 C197.92 199.11, 198.96 197.91, 200.17 196.53" stroke="#40c057" stroke-width="1" fill="none"></path><path d="M0 0 C67.41 0, 134.81 0, 200 0 M0 0 C58.14 0, 116.28 0, 200 0 M200 0 C200 76.89, 200 153.79, 200 200 M200 0 C200 48.77, 200 97.55, 200 200 M200 200 C157.88 200, 115.77 200, 0 200 M200 200 C151 200, 102 200, 0 200 M0 200 C0 155.54, 0 111.08, 0 0 M0 200 C0 135.47, 0 70.94, 0 0" stroke="#16a34a" stroke-width="2" fill="none"></path></g></svg>